<?xml version="1.0" standalone="no"?>
<!DOCTYPE svg PUBLIC "-//W3C//DTD SVG 20010904//EN"
 "http://www.w3.org/TR/2001/REC-SVG-20010904/DTD/svg10.dtd">
<svg version="1.0" xmlns="http://www.w3.org/2000/svg"
 width="16.000000pt" height="16.000000pt" viewBox="0 0 16.000000 16.000000"
 preserveAspectRatio="xMidYMid meet">
<metadata>
Created by potrace 1.11, written by Peter Selinger 2001-2013
</metadata>
<g transform="translate(0.000000,16.000000) scale(0.003931,-0.003931)"
fill="#000000" stroke="none">
<path d="M460 4053 c-199 -34 -364 -192 -410 -393 -11 -43 -13 -382 -13 -1605
0 -1429 2 -1555 17 -1617 45 -175 177 -311 352 -364 56 -17 152 -18 1634 -18
1483 0 1578 1 1634 17 192 59 335 222 362 415 4 26 7 740 7 1587 0 1422 -2
1545 -18 1605 -43 165 -160 290 -331 356 -47 18 -108 19 -1629 20 -869 1
-1591 0 -1605 -3z m3125 -133 c22 -5 53 -11 69 -14 52 -9 150 -86 191 -149 67
-104 64 -22 65 -1699 0 -1696 4 -1599 -70 -1708 -49 -71 -140 -133 -225 -151
-47 -10 -385 -13 -1565 -14 -1687 -1 -1603 -4 -1712 69 -75 49 -132 132 -153
221 -13 58 -15 253 -15 1583 1 1226 3 1529 14 1579 29 137 142 247 281 277 60
12 291 14 1575 15 880 0 1522 -3 1545 -9z"/>
<path d="M1585 2857 c-468 -297 -478 -305 -425 -351 l25 -21 850 1 c468 1 857
2 866 3 9 0 22 15 29 31 10 24 10 34 -1 50 -20 29 -867 560 -892 559 -12 0
-215 -123 -452 -272z m782 -57 l316 -200 -644 0 -644 1 55 34 c30 18 172 108
315 199 143 91 266 165 273 165 6 1 155 -89 329 -199z"/>
<path d="M1163 2363 c-41 -40 -21 -81 44 -90 l41 -5 0 -474 -1 -474 -37 0
c-60 0 -86 -42 -54 -88 15 -22 19 -22 248 -22 213 0 234 2 249 18 20 22 22 63
5 80 -7 7 -29 12 -50 12 l-38 0 0 475 0 475 25 0 c14 0 27 -1 29 -2 12 -8 46
39 46 62 0 51 -13 54 -259 55 -221 1 -226 0 -248 -22z m293 -566 l-1 -472 -47
-3 -48 -3 0 475 0 475 33 3 c70 7 65 47 63 -475z"/>
<path d="M1811 2378 c-30 -11 -43 -42 -30 -72 11 -24 35 -36 76 -36 l21 0 0
-475 0 -475 -38 0 c-29 0 -43 -6 -54 -22 -21 -29 -20 -40 4 -66 20 -21 27 -22
248 -22 248 0 265 3 265 53 0 40 -20 57 -64 57 l-39 0 0 475 0 475 33 0 c58 0
94 62 56 96 -18 17 -43 18 -239 19 -121 0 -228 -3 -239 -7z m279 -583 l0 -472
-50 -2 -50 -1 0 475 0 474 33 3 c73 7 67 49 67 -477z"/>
<path d="M2453 2382 c-30 -4 -51 -36 -46 -66 5 -26 40 -46 78 -46 l25 0 0
-475 0 -475 -39 0 c-44 0 -63 -17 -63 -57 0 -50 16 -53 264 -53 221 0 228 1
248 22 24 26 25 37 4 66 -11 16 -25 22 -55 22 l-39 0 0 475 0 475 33 0 c42 0
82 38 73 68 -14 43 -28 46 -249 47 -117 0 -222 -1 -234 -3z m267 -585 l0 -474
-50 0 -50 -1 0 474 0 474 50 0 50 0 0 -473z"/>
<path d="M1064 1102 c-26 -17 -33 -46 -18 -74 l15 -28 974 0 c872 0 975 2 989
16 21 21 20 57 -2 77 -17 16 -99 17 -983 17 -530 0 -969 -4 -975 -8z"/>
</g>
</svg>
